<svg xmlns="http://www.w3.org/2000/svg" xmlns:xlink="http://www.w3.org/1999/xlink" width="60" height="60" viewBox="0 0 60 60">
    <defs>
        <path id="a" d="M0 0h60v60H0z"/>
    </defs>
    <g fill="none" fill-rule="evenodd">
        <g>
            <use fill="#D8D8D8" xlink:href="#a"/>
            <use fill="#F0585B" xlink:href="#a"/>
        </g>
        <g fill="#FFF" fill-rule="nonzero">
            <path d="M35.314 14.515c-2.964-2.313-6.798-3.077-10.519-2.098-4.13 1.087-7.342 4.365-8.385 8.554-1.29 5.187.749 10.442 5.089 13.271l-.014 6.632h1.475C23.451 43.228 25.523 45 27.998 45c2.474 0 4.546-1.772 5.037-4.125h1.475l-.013-6.633a12.117 12.117 0 0 0 3.823-4.024 12.163 12.163 0 0 0 1.653-6.13c0-3.774-1.698-7.263-4.66-9.573zm-7.316 28.422c-1.355 0-2.51-.88-2.933-2.104h5.866a3.114 3.114 0 0 1-2.933 2.104zm-4.466-4.167l.004-2.021h8.923l.004 2.02h-8.93zm3.444-14.741c0-.569.459-1.032 1.022-1.032s1.021.463 1.021 1.032-.458 1.031-1.021 1.031a1.028 1.028 0 0 1-1.022-1.031zm9.585 5.141a10.048 10.048 0 0 1-3.598 3.602l-.511.299.003 1.615H29.02v-7.74a3.097 3.097 0 0 0 2.043-2.917c0-1.706-1.375-3.094-3.064-3.094-1.69 0-3.064 1.388-3.064 3.094 0 1.344.854 2.49 2.043 2.917v7.74H23.54l.003-1.615-.511-.299a10.1 10.1 0 0 1-4.133-4.657c-.9-2.066-1.075-4.363-.508-6.641.86-3.458 3.511-6.164 6.919-7.06 3.104-.818 6.294-.186 8.754 1.733a10.004 10.004 0 0 1 3.865 7.94c0 1.792-.474 3.55-1.37 5.083z"/>
            <path d="M20.167 24.029h2.043c0-3.223 2.596-5.845 5.788-5.845v-2.062c-4.318 0-7.83 3.547-7.83 7.907zM33.786 24.029a5.83 5.83 0 0 1-1.737 4.174l1.43 1.473a7.887 7.887 0 0 0 2.35-5.647h-2.043z"/>
        </g>
    </g>
</svg>
