<svg xmlns="http://www.w3.org/2000/svg" xmlns:xlink="http://www.w3.org/1999/xlink" width="60" height="60" viewBox="0 0 60 60">
    <defs>
        <path id="a" d="M0 0h60v60H0z"/>
    </defs>
    <g fill="none" fill-rule="evenodd">
        <g>
            <use fill="#D8D8D8" xlink:href="#a"/>
            <use fill="#F0585B" xlink:href="#a"/>
        </g>
        <path fill="#FFF" fill-rule="nonzero" d="M35.316 32.744l-1.137-1.137 7.934-7.933.87-7.674-7.564.993-7.927 7.927-1.25-1.25a6.168 6.168 0 0 0-1.648-5.828 6.217 6.217 0 0 0-7.064-1.212l-1.132.54 3.39 3.389-1.254 1.254-3.39-3.39-.54 1.132a6.217 6.217 0 0 0 1.213 7.064 6.168 6.168 0 0 0 5.828 1.65l1.25 1.249-8.796 8.795L20.787 45l8.795-8.795 1.136 1.136a6.168 6.168 0 0 0 1.649 5.829 6.214 6.214 0 0 0 7.064 1.212l1.131-.54-3.389-3.39 1.254-1.253 3.39 3.39.54-1.132a6.217 6.217 0 0 0-1.213-7.064 6.168 6.168 0 0 0-5.828-1.65zm-2.39-2.39l-1.463-1.463 5.997-5.997 1.913 1.012-6.448 6.448zm8.04-12.3l-.502 4.423-2.5-1.323-1.256-2.542 4.257-.559zm-5.714 1.614l.967 1.958-6.01 6.01-1.463-1.462 6.506-6.506zM24.148 30.772l1.463 1.462-2.526 2.526-1.462-1.463 2.525-2.525zm-3.361 11.72l-4.18-4.18 1.672-1.671 4.18 4.18-1.672 1.671zm2.925-2.925l-4.18-4.18.837-.836 4.18 4.18-.837.836zm2.09-2.09l-1.463-1.463 2.526-2.526 1.463 1.463-2.526 2.526zm15.342 1.931l-2.717-2.717-3.761 3.762 2.717 2.717a4.445 4.445 0 0 1-3.762-1.254 4.41 4.41 0 0 1-1.067-4.55l.175-.521-10.587-10.588-.521.175a4.41 4.41 0 0 1-4.55-1.066 4.443 4.443 0 0 1-1.254-3.762l2.717 2.717 3.761-3.762-2.717-2.717a4.444 4.444 0 0 1 3.762 1.254 4.41 4.41 0 0 1 1.066 4.55l-.175.521L34.82 34.755l.52-.175a4.411 4.411 0 0 1 4.551 1.066 4.443 4.443 0 0 1 1.254 3.762z"/>
    </g>
</svg>
