<svg xmlns="http://www.w3.org/2000/svg" xmlns:xlink="http://www.w3.org/1999/xlink" width="60" height="60" viewBox="0 0 60 60">
    <defs>
        <path id="a" d="M0 0h60v60H0z"/>
    </defs>
    <g fill="none" fill-rule="evenodd">
        <g>
            <use fill="#D8D8D8" xlink:href="#a"/>
            <use fill="#F0585B" xlink:href="#a"/>
        </g>
        <g fill="#FFF" fill-rule="nonzero">
            <path d="M47 30l-5.357-4.823.378-7.198-7.198.378L30 13l-4.823 5.357-7.198-.378.378 7.198L13 30l5.357 4.823-.378 7.198 7.198-.378L30 47l4.823-5.357 7.198.378-.378-7.198L47 30zm-13.054 9.524L30 43.907l-3.946-4.383-5.887.31.309-5.888L16.093 30l4.383-3.946-.31-5.887 5.888.31L30 16.092l3.946 4.383 5.887-.31-.309 5.888L43.907 30l-4.383 3.946.31 5.887-5.888-.31z"/>
            <path d="M23.75 34.788L34.786 23.75l1.464 1.464L25.213 36.25zM25.171 25.171h2.07v2.07h-2.07zM32.76 32.76h2.07v2.07h-2.07z"/>
        </g>
    </g>
</svg>
