<svg xmlns="http://www.w3.org/2000/svg" width="117" height="41" viewBox="0 0 117 41">
    <g fill="none" fill-rule="evenodd">
        <path fill="#FFF" d="M8.832 36.39c-.14 1.204-.585 2.132-1.332 2.786-.747.653-1.74.98-2.98.98-1.344 0-2.421-.482-3.23-1.445-.81-.964-1.216-2.253-1.216-3.867V33.75c0-1.057.189-1.987.567-2.79.377-.801.912-1.417 1.605-1.847.693-.43 1.495-.644 2.406-.644 1.209 0 2.177.337 2.907 1.011.729.675 1.153 1.609 1.273 2.801H7.324c-.13-.906-.413-1.562-.847-1.968-.435-.407-1.043-.61-1.825-.61-.958 0-1.71.354-2.254 1.063-.544.708-.816 1.716-.816 3.023v1.102c0 1.234.258 2.216.773 2.945.516.73 1.237 1.094 2.165 1.094.833 0 1.472-.19 1.918-.567.445-.377.74-1.035.886-1.972h1.508zm10.797-1.71c0 1.114-.188 2.087-.563 2.918-.375.83-.906 1.464-1.593 1.902-.688.438-1.49.656-2.407.656-.895 0-1.69-.22-2.382-.66-.693-.44-1.23-1.068-1.614-1.883-.383-.815-.58-1.759-.59-2.832v-.82c0-1.094.19-2.06.57-2.898.381-.839.919-1.481 1.614-1.926.695-.446 1.49-.668 2.387-.668.911 0 1.715.22 2.41.66.695.44 1.23 1.078 1.605 1.914.375.836.563 1.809.563 2.918v.719zm-1.492-.735c0-1.349-.271-2.384-.813-3.105-.541-.722-1.3-1.082-2.273-1.082-.948 0-1.694.36-2.239 1.082-.544.721-.824 1.722-.84 3.004v.836c0 1.307.275 2.334.825 3.082.55.747 1.306 1.12 2.27 1.12.968 0 1.718-.352 2.25-1.058.53-.706.804-1.717.82-3.035v-.844zM30.62 40h-1.508l-5.726-8.766V40h-1.508V28.625h1.508l5.742 8.805v-8.805h1.492V40zm6.016-5.07c-1.287-.37-2.223-.825-2.809-1.364a2.605 2.605 0 0 1-.879-1.996c0-.896.358-1.636 1.074-2.222.717-.586 1.648-.88 2.793-.88.782 0 1.478.152 2.09.454.612.302 1.086.719 1.422 1.25.336.531.504 1.112.504 1.742h-1.508c0-.687-.219-1.228-.656-1.621-.438-.393-1.055-.59-1.852-.59-.74 0-1.316.163-1.73.488-.414.326-.621.778-.621 1.356 0 .463.196.855.59 1.176.393.32 1.062.613 2.008.879.945.265 1.684.558 2.218.878.534.32.93.694 1.188 1.122.258.427.386.93.386 1.507 0 .922-.359 1.66-1.078 2.215-.718.555-1.68.832-2.882.832-.782 0-1.51-.15-2.188-.449-.677-.3-1.2-.71-1.566-1.23a3.003 3.003 0 0 1-.551-1.774h1.508c0 .688.254 1.23.761 1.629.508.398 1.187.598 2.036.598.791 0 1.398-.162 1.82-.485.422-.323.633-.763.633-1.32s-.196-.988-.586-1.293c-.39-.305-1.1-.605-2.125-.902zm14-5.07H46.98V40h-1.492V29.86H41.84v-1.235h8.797v1.234zm5.86 5.538h-2.673V40h-1.508V28.625h3.766c1.281 0 2.267.292 2.957.875s1.035 1.432 1.035 2.547c0 .708-.191 1.325-.574 1.851-.383.526-.915.92-1.598 1.18l2.672 4.828V40h-1.61l-2.468-4.602zm-2.673-1.226h2.305c.745 0 1.337-.193 1.777-.578.44-.386.66-.901.66-1.547 0-.703-.21-1.242-.629-1.617-.419-.375-1.024-.565-1.816-.57h-2.297v4.312zm16.36-5.547v7.734c-.006 1.073-.343 1.95-1.012 2.633-.67.682-1.577 1.065-2.723 1.149l-.398.015c-1.245 0-2.237-.336-2.977-1.008-.74-.671-1.114-1.596-1.125-2.773v-7.75h1.485v7.703c0 .823.226 1.462.68 1.918.452.456 1.098.684 1.937.684.849 0 1.498-.227 1.949-.68.45-.453.676-1.091.676-1.914v-7.711h1.508zm10.734 7.766c-.14 1.203-.585 2.131-1.332 2.785-.747.653-1.74.98-2.98.98-1.344 0-2.421-.482-3.231-1.445-.81-.964-1.215-2.253-1.215-3.867V33.75c0-1.057.189-1.987.567-2.79.377-.801.912-1.417 1.605-1.847.693-.43 1.495-.644 2.406-.644 1.209 0 2.177.337 2.907 1.011.729.675 1.153 1.609 1.273 2.801H79.41c-.13-.906-.413-1.562-.847-1.968-.435-.407-1.043-.61-1.825-.61-.958 0-1.71.354-2.254 1.063-.544.708-.816 1.716-.816 3.023v1.102c0 1.234.258 2.216.773 2.945.516.73 1.237 1.094 2.164 1.094.834 0 1.473-.19 1.918-.567.446-.377.741-1.035.887-1.972h1.508zm9.68-6.532H86.94V40H85.45V29.86h-3.648v-1.235h8.797v1.234zM93.895 40h-1.5V28.625h1.5V40zm11.492-5.32c0 1.114-.188 2.087-.563 2.918-.375.83-.906 1.464-1.594 1.902-.687.438-1.49.656-2.406.656-.896 0-1.69-.22-2.383-.66-.692-.44-1.23-1.068-1.613-1.883s-.58-1.759-.59-2.832v-.82c0-1.094.19-2.06.57-2.898.38-.839.919-1.481 1.614-1.926.695-.446 1.49-.668 2.387-.668.911 0 1.714.22 2.41.66.695.44 1.23 1.078 1.605 1.914.375.836.563 1.809.563 2.918v.719zm-1.492-.735c0-1.349-.271-2.384-.813-3.105-.542-.722-1.3-1.082-2.273-1.082-.948 0-1.694.36-2.239 1.082-.544.721-.824 1.722-.84 3.004v.836c0 1.307.275 2.334.825 3.082.55.747 1.306 1.12 2.27 1.12.968 0 1.718-.352 2.25-1.058.53-.706.804-1.717.82-3.035v-.844zM116.379 40h-1.508l-5.726-8.766V40h-1.508V28.625h1.508l5.742 8.805v-8.805h1.492V40z"/>
        <path fill="#F0585B" d="M84 0h33v23H92a8 8 0 0 1-8-8V0z"/>
        <path fill="#0B1327" d="M98.988 2.227V14.53c-.016 1.848-.525 3.262-1.526 4.242-1 .98-2.437 1.471-4.309 1.471-1.904 0-3.359-.496-4.364-1.49-1.005-.992-1.507-2.428-1.507-4.308V2.226h3.613v12.232c0 1.01.163 1.73.488 2.16.326.432.916.648 1.77.648.855 0 1.44-.214 1.758-.641.318-.427.48-1.13.488-2.106V2.227h3.59zM105.3 13.75V20h-3.589V2.227h6.055c1.758 0 3.16.545 4.205 1.635 1.046 1.09 1.57 2.507 1.57 4.248 0 1.742-.518 3.117-1.551 4.126-1.034 1.01-2.466 1.514-4.297 1.514h-2.393zm0-2.99h2.466c.684 0 1.213-.225 1.587-.672.374-.448.562-1.099.562-1.953 0-.887-.192-1.593-.574-2.118-.383-.525-.895-.792-1.538-.8h-2.503v5.542z"/>
        <path fill="#FFF" d="M14.648 20l.118-6.21h-.762l-.733 2.519c-.41 1.367-1.005 2.236-1.787 2.607-.41.195-.888.293-1.435.293h-3.34V3.213h2.49v-.791H.762v.79h2.343V19.21H.762V20h13.886zM30.03 7.93l-.117-5.508H15.615v.79h2.344V19.21h-2.344V20h14.297l.117-5.508h-.761l-.586 1.817c-.508 1.523-1.27 2.441-2.286 2.753a3.828 3.828 0 0 1-1.084.147h-3.75v-7.822h5.772v-.88h-5.771V3.214h3.75c1.503 0 2.568.781 3.193 2.344.078.175.146.361.205.556l.557 1.817h.761zm11.045 12.216l6.094-16.933h1.465v-.791h-4.951v.79h2.343l-4.6 12.862-5.068-12.861h2.315v-.791h-7.5v.79h1.582l5.713 14.62c.469 1.191.84 1.885 1.113 2.08.215.156.537.234.967.234h.527zM63.81 7.93l-.118-5.508H49.395v.79h2.343V19.21h-2.343V20H63.69l.118-5.508h-.762l-.586 1.817c-.508 1.523-1.27 2.441-2.285 2.753a3.828 3.828 0 0 1-1.084.147h-3.75v-7.822h5.771v-.88h-5.771V3.214h3.75c1.504 0 2.568.781 3.193 2.344.078.175.147.361.205.556l.557 1.817h.762zM79.834 20l.117-6.21h-.762l-.732 2.519c-.41 1.367-1.006 2.236-1.787 2.607-.41.195-.889.293-1.436.293h-3.34V3.213h2.49v-.791h-8.437v.79h2.344V19.21h-2.344V20h13.887z"/>
    </g>
</svg>
