<svg xmlns="http://www.w3.org/2000/svg" width="117" height="23" viewBox="0 0 117 23">
    <g fill="none" fill-rule="evenodd">
        <path fill="#F0585B" d="M84 0h33v23H92a8 8 0 0 1-8-8V0z"/>
        <path fill="#0B1327" d="M98.988 2.227V14.53c-.016 1.848-.525 3.262-1.526 4.242-1 .98-2.437 1.471-4.309 1.471-1.904 0-3.359-.496-4.364-1.49-1.005-.992-1.507-2.428-1.507-4.308V2.226h3.613v12.232c0 1.01.163 1.73.488 2.16.326.432.916.648 1.77.648.855 0 1.44-.214 1.758-.641.318-.427.48-1.13.488-2.106V2.227h3.59zM105.3 13.75V20h-3.589V2.227h6.055c1.758 0 3.16.545 4.205 1.635 1.046 1.09 1.57 2.507 1.57 4.248 0 1.742-.518 3.117-1.551 4.126-1.034 1.01-2.466 1.514-4.297 1.514h-2.393zm0-2.99h2.466c.684 0 1.213-.225 1.587-.672.374-.448.562-1.099.562-1.953 0-.887-.192-1.593-.574-2.118-.383-.525-.895-.792-1.538-.8h-2.503v5.542z"/>
        <path fill="#FFF" d="M14.648 20l.118-6.21h-.762l-.733 2.519c-.41 1.367-1.005 2.236-1.787 2.607-.41.195-.888.293-1.435.293h-3.34V3.213h2.49v-.791H.762v.79h2.343V19.21H.762V20h13.886zM30.03 7.93l-.117-5.508H15.615v.79h2.344V19.21h-2.344V20h14.297l.117-5.508h-.761l-.586 1.817c-.508 1.523-1.27 2.441-2.286 2.753a3.828 3.828 0 0 1-1.084.147h-3.75v-7.822h5.772v-.88h-5.771V3.214h3.75c1.503 0 2.568.781 3.193 2.344.078.175.146.361.205.556l.557 1.817h.761zm11.045 12.216l6.094-16.933h1.465v-.791h-4.951v.79h2.343l-4.6 12.862-5.068-12.861h2.315v-.791h-7.5v.79h1.582l5.713 14.62c.469 1.191.84 1.885 1.113 2.08.215.156.537.234.967.234h.527zM63.81 7.93l-.118-5.508H49.395v.79h2.343V19.21h-2.343V20H63.69l.118-5.508h-.762l-.586 1.817c-.508 1.523-1.27 2.441-2.285 2.753a3.828 3.828 0 0 1-1.084.147h-3.75v-7.822h5.771v-.88h-5.771V3.214h3.75c1.504 0 2.568.781 3.193 2.344.078.175.147.361.205.556l.557 1.817h.762zM79.834 20l.117-6.21h-.762l-.732 2.519c-.41 1.367-1.006 2.236-1.787 2.607-.41.195-.889.293-1.436.293h-3.34V3.213h2.49v-.791h-8.437v.79h2.344V19.21h-2.344V20h13.887z"/>
    </g>
</svg>
