<svg xmlns="http://www.w3.org/2000/svg" width="20" height="18" viewBox="0 0 20 18">
    <g fill="#FFF" fill-rule="nonzero">
        <path d="M.755 2.314h18.49c.417 0 .755-.46.755-1.028 0-.568-.338-1.029-.755-1.029H.755C.338.257 0 .717 0 1.286c0 .567.338 1.028.755 1.028zM.755 10.029h18.49c.417 0 .755-.461.755-1.029 0-.568-.338-1.029-.755-1.029H.755C.338 7.971 0 8.432 0 9c0 .568.338 1.029.755 1.029zM.755 17.743h18.49c.417 0 .755-.46.755-1.029 0-.567-.338-1.028-.755-1.028H.755c-.417 0-.755.46-.755 1.028 0 .568.338 1.029.755 1.029z"/>
    </g>
</svg>
